# xmcd
#
# Track frame offsets:
#	150
#	11379
#	32054
#	51492
#	62446
#	77931
#	95232
#	114713
#	130742
#	150185
#	171787
#	188923
#	212135
#	228219
#	252236
#	271391
#	290116
#	303601
#
# Disc length: 4201 seconds
#
# Revision: 1
# Processed by: cddbd v1.4PL0 Copyright (c) Steve Scherf et al.
# Submitted via: audiograbber 1.80.04
#
DISCID=fe106712
DTITLE=Jerry Jeff Walker - Gypsy Songman (A Life in Song)
DYEAR=1999
DGENRE=
TTITLE0=Gypsy Songman
TTITLE1=Morning Song to Sally
TTITLE2=Mr. Bojangles
TTITLE3=I Makes Money (Money Don't Make Me)
TTITLE4=Viva Luckenbach
TTITLE5=Woman In Texas
TTITLE6=I Promise To Love You
TTITLE7=She Knows Her Daddy Sings
TTITLE8=Little Man
TTITLE9=The Road You Choose
TTITLE10=May Music Be Your Wings
TTITLE11=My Old Man
TTITLE12=Little Bird
TTITLE13=Stoney
TTITLE14=That Old Beat-Up Guitar
TTITLE15=David and Me
TTITLE16=Railroad Lady
TTITLE17=Driftin' Way of Life
EXTD=This is the Tried and True "Gypsy Songman", not the Ryko\n"Gypsy Songman"
EXTT0=
EXTT1=
EXTT2=
EXTT3=
EXTT4=
EXTT5=
EXTT6=
EXTT7=
EXTT8=
EXTT9=
EXTT10=
EXTT11=
EXTT12=
EXTT13=
EXTT14=
EXTT15=
EXTT16=
EXTT17=
PLAYORDER=
